<svg xmlns="http://www.w3.org/2000/svg" xmlns:xlink="http://www.w3.org/1999/xlink" version="1.1" id="Layer_2" x="0px" y="0px" viewBox="0 0 1080 1080" style="enable-background:new 0 0 1080 1080;" xml:space="preserve" width="1080" height="1080">
<style xmlns="http://www.w3.org/2000/svg" type="text/css">
	.st0{fill:#F0FAFF;}
	.st1{fill:#B0E1FF;}
	.st2{fill:#CCEEFF;}
	.st3{fill:#F2F2F2;}
	.st4{fill:#FFBE55;}
	.st5{fill:#F7869E;}
	.st6{fill:#0E538C;}
	.st7{fill:#FFDDAB;}
	.st8{fill:#2A94F4;}
	.st9{fill:#545454;}
</style>
<g xmlns="http://www.w3.org/2000/svg">
	<path class="st0" d="M322.41,201.04c-25.96,11.35-51.77,25.19-69.93,46.95s-27.26,53.01-16.36,79.16   c14.55,34.94,60.66,55.27,60.87,93.12c0.15,27.11-24.86,47.81-50.12,57.66c-25.25,9.86-53.21,13.41-76.18,27.81   c-34.66,21.74-50.91,63.81-57.56,104.17c-6.91,41.92-4.11,89.63,25.55,120.04c36.86,37.8,97.82,33.53,150,25.48   c69.63-10.75,138.96-23.39,208.27-36.03c151.95-27.7,303.89-55.4,455.84-83.09c16.29-2.97,33.24-6.22,46.48-16.17   c26.29-19.76,28.51-60.56,13.23-89.68c-15.28-29.12-43.55-48.91-71.62-66.03s-57.72-33.32-78.75-58.61   c-21.03-25.29-31.49-62.72-15.58-91.5c13.48-24.39,42.45-37.42,55.08-62.26c16.64-32.72-2.51-74.52-32.69-95.41   C838.74,135.77,459.57,141.06,322.41,201.04z"/>
</g>
<g xmlns="http://www.w3.org/2000/svg">
	<g>
		<circle class="st1" cx="144.56" cy="688.04" r="122.44"/>
	</g>
	<g>
		<g>
			<path class="st2" d="M144.56,930c-1.55,0-2.8-1.25-2.8-2.8V688.04c0-1.55,1.25-2.8,2.8-2.8c1.55,0,2.8,1.25,2.8,2.8V927.2     C147.36,928.75,146.1,930,144.56,930z"/>
		</g>
		<g>
			<path class="st2" d="M144.56,754.25c-0.72,0-1.43-0.27-1.98-0.82l-34.29-34.29c-1.09-1.09-1.09-2.87,0-3.96     c1.1-1.09,2.87-1.09,3.96,0l34.29,34.29c1.09,1.09,1.09,2.87,0,3.95C145.99,753.97,145.27,754.25,144.56,754.25z"/>
		</g>
		<g>
			<path class="st2" d="M144.56,786.09c-0.72,0-1.43-0.27-1.98-0.82l-34.29-34.29c-1.09-1.09-1.09-2.87,0-3.95     c1.1-1.09,2.87-1.09,3.96,0l34.29,34.29c1.09,1.09,1.09,2.87,0,3.96C145.99,785.81,145.27,786.09,144.56,786.09z"/>
		</g>
	</g>
</g>
<g xmlns="http://www.w3.org/2000/svg">
	<g>
		<path class="st2" d="M1004.37,603.86c35.04,19,58.83,56.1,58.83,98.77c0,62.01-50.27,112.28-112.28,112.28    c-47.84,0-88.69-29.92-104.86-72.07L1004.37,603.86z"/>
	</g>
	<g>
		<circle class="st1" cx="830.75" cy="565.75" r="177.75"/>
	</g>
	<g>
		<g>
			<path class="st2" d="M830.75,917c-2.25,0-4.06-1.82-4.06-4.06V565.75c0-2.25,1.82-4.06,4.06-4.06c2.25,0,4.06,1.82,4.06,4.06     v347.19C834.82,915.18,833,917,830.75,917z"/>
		</g>
		<g>
			<path class="st2" d="M830.75,661.86c-1.04,0-2.08-0.4-2.87-1.19L778.1,610.9c-1.59-1.59-1.59-4.16,0-5.75     c1.59-1.59,4.16-1.58,5.75,0l49.78,49.78c1.59,1.59,1.59,4.16,0,5.74C832.83,661.47,831.79,661.86,830.75,661.86z"/>
		</g>
		<g>
			<path class="st2" d="M830.75,708.08c-1.04,0-2.08-0.4-2.87-1.19l-49.78-49.78c-1.59-1.59-1.59-4.16,0-5.74     c1.59-1.59,4.16-1.58,5.75,0l49.78,49.78c1.59,1.59,1.59,4.16,0,5.74C832.83,707.69,831.79,708.08,830.75,708.08z"/>
		</g>
		<g>
			<path class="st2" d="M950.2,916.94c-1.98-0.34-3.34-2.22-3.34-4.23V730.8c0-2.2,1.65-4.17,3.85-4.29     c2.34-0.12,4.28,1.74,4.28,4.06v182.37C954.99,915.42,952.76,917.38,950.2,916.94z"/>
		</g>
		<g>
			<path class="st2" d="M950.92,757.18c-1.04,0-2.08-0.4-2.87-1.19c-1.59-1.58-1.59-4.16,0-5.74l35.89-35.89     c1.59-1.59,4.16-1.59,5.75,0c1.59,1.58,1.59,4.16,0,5.74l-35.89,35.89C953,756.79,951.96,757.18,950.92,757.18z"/>
		</g>
		<g>
			<path class="st2" d="M950.92,790.51c-1.04,0-2.08-0.4-2.87-1.19c-1.59-1.58-1.59-4.16,0-5.74l35.89-35.89     c1.59-1.59,4.16-1.59,5.75,0c1.59,1.58,1.59,4.16,0,5.74l-35.89,35.89C953,790.11,951.96,790.51,950.92,790.51z"/>
		</g>
	</g>
</g>
<path xmlns="http://www.w3.org/2000/svg" class="st3" d="M1022.02,1025H57.98c-7.41,0-13.48-6.06-13.48-13.48v-84.05c0-7.41,6.06-13.48,13.48-13.48h964.05  c7.41,0,13.48,6.06,13.48,13.48v84.05C1035.5,1018.94,1029.44,1025,1022.02,1025z"/>
<g xmlns="http://www.w3.org/2000/svg">
	<g>
		<path class="st4" d="M449.45,378.71c33.64,18,67.28,36,100.92,54c1.53,0.82,3.2,1.8,3.7,3.46c0.38,1.24,0,2.57-0.44,3.79    c-6.06,16.75-25.4,26.39-43.1,24.44c-17.7-1.94-33.26-13.62-43.45-28.22c-8.51-12.2-13.73-26.31-17.65-40.72    C447.94,389.98,447.98,384.19,449.45,378.71L449.45,378.71z"/>
	</g>
	<g>
		<path class="st5" d="M349.42,410.52c-4.22-2.06-8.73-3.66-13.31-4.83c-4.58-1.16-9.25-1.89-13.85-2.06    c-4.58-0.16-9.11,0.25-13.12,1.51c-4.01,1.25-7.36,3.35-9.61,6.21c-2.05,2.59-5.81,3.03-8.4,0.99c-2.59-2.05-3.03-5.81-0.99-8.4    c0.11-0.14,0.23-0.28,0.35-0.4l0.11-0.12c2.18-2.3,4.75-4.19,7.46-5.61c2.71-1.43,5.56-2.4,8.38-3.02    c5.67-1.25,11.24-1.21,16.58-0.59c5.35,0.64,10.5,1.91,15.46,3.62c4.96,1.72,9.75,3.87,14.29,6.57c1.66,0.99,2.21,3.14,1.22,4.8    c-0.94,1.57-2.91,2.15-4.53,1.36L349.42,410.52z"/>
	</g>
	<path class="st4" d="M721.45,902.14c0,2.16-0.01,4.11-0.03,5.87c-0.13,9.88-0.68,13.82-2.72,15.92c-1.16,1.2-2.8,1.81-5.11,2.58   c0,0-22.79-51.87-48.73-120.25c-77.02-29.87-110.43-100.21-94.71-124.57c25.94-30.65,88.42-23.19,75.84,12.97   c-25.94,32.22,44.8,85.67,44.8,85.67S721.45,880.91,721.45,902.14z"/>
	<path class="st4" d="M389.77,636.48c-47.16,24.36-93.53,73.88-93.53,73.88s18.08,95.1,23.58,100.6   c18.47-16.11,1.96-93.14,1.96-93.14c6.29-0.79,86.06-48.34,86.06-48.34L389.77,636.48z"/>
	<path class="st4" d="M912.42,861.81c0.04,2.34-0.16,4.55-0.8,6.31c-0.99,2.74-2.99,4.4-6.65,3.76   c-13.37-2.36-91.17-89.6-124.18-112.4c-110.82,25.16-142.26-52.65-142.26-52.65s-17.29-36.16-112.39-5.51   c-66.91,17.08-115.77-10.24-146.22-51.35c-4.16-5.6-7.97-11.45-11.43-17.48c-4.07-7.09-5.44-25.31-5.24-48.13   c0.44-51.37,8.79-126.06,11.98-149.47c-39.56-6.2-51.87-20.44-62.87-34.59c14.14-1.57,44.71,4.9,46.37,1.58   c-5.66-0.57-39.25-13.25-48.36-18.54c0.93-13.11,8.16-25.74,16.82-34.15c0.67-0.67,1.36-1.3,2.05-1.91   c3.86-3.37,7.93-5.89,11.79-7.24c0.01-0.01,0.02-0.01,0.04-0.02c1.47-0.52,2.91-0.86,4.3-1.02c0.01,0.01,0.01,0.02,0.02,0.03   c4.61,5.24,8.97,9.85,13.15,13.87c0.5,0.48,1.01,0.96,1.51,1.42c0.09,0.08,0.16,0.16,0.24,0.23   c20.64,19.24,37.07,24.09,58.17,22.18c22.4,1.17,47.55-28.69,46.77,104.92c-0.1,15.95,1.65,29.87,4.92,42.03   c15.46,57.91,64.84,76.13,110.4,84.18c25.07,4.43,48.98,5.78,65.44,8.97c52.66,10.22,95.89,91.96,105.32,104.54   c9.43,12.57,57.38,11,57.38,11l94.48,106.25c1.84,2.06,3.42,4.3,4.75,6.68C910.72,850.34,912.32,855.99,912.42,861.81z"/>
	<path class="st4" d="M427.5,675.78c-32.22,35.37-51.87,98.24-52.66,106.89C374.05,791.32,422,890.35,422,890.35   c10.22,0-2.36-86.45-16.51-103.75c4.72-29.87,61.3-73.09,64.45-91.96C460.51,677.35,427.5,675.78,427.5,675.78z"/>
	<circle class="st6" cx="391.74" cy="387.73" r="7.86"/>
	<path class="st6" d="M360.97,355.21c-19.71,7.56-28.44,1.36-33.78-6.02c0.68-0.67,1.36-1.3,2.05-1.9   c3.86-3.37,7.93-5.89,11.79-7.25c0.02-0.01,0.02-0.01,0.04-0.02c1.48-0.49,2.92-0.83,4.32-0.99c0.07-0.02,0.15-0.02,0.22-0.03   c5.05,5.75,9.84,10.84,14.44,15.32c0.09,0.08,0.17,0.16,0.24,0.24C360.52,354.77,360.74,354.99,360.97,355.21z"/>
	<g>
		<path class="st7" d="M499.29,511.75c-1.19-0.21-2.39-0.39-3.59-0.55l3.76,0.5C499.4,511.71,499.34,511.74,499.29,511.75z"/>
	</g>
	<g>
		<path class="st4" d="M580.55,607.86c-2.09,8.41-6.52,16.2-13.24,21.61c-11.73,9.44-28.56,10.34-42.99,6.03    c-14.42-4.31-27.02-13.1-39.34-21.76c-10.19-7.16-20.51-14.45-28.32-24.14c-7.8-9.68-12.91-22.27-10.92-34.55    c1.94-11.98,10.37-22.12,20.43-28.89c1.3-0.87,2.62-1.7,3.97-2.48C485.61,581.59,534.99,599.81,580.55,607.86z"/>
	</g>
	<g>
		<path class="st4" d="M541.86,660.45c-7.66,0.21-12.76,1.17-18.96,4.63c-4.35,2.43-8.58,5.89-9.78,10.73    c-1.64,6.63,3.38,13.56,9.76,16.01c6.38,2.45,13.57,1.37,20.09-0.68c6.52-2.05,12.76-5.03,19.45-6.41    c5.33-1.1,11.44-1.46,14.96-5.61c3.54-4.18,2.7-10.93-0.92-15.05s-9.29-5.91-14.77-6.1c-5.47-0.2-10.89,1-16.29,1.93    L541.86,660.45z"/>
	</g>
	<g>
		<path class="st6" d="M332.2,554.12l0.37-0.28c-0.1,0.08-0.21,0.17-0.31,0.25C332.24,554.11,332.22,554.12,332.2,554.12z"/>
	</g>
	<g>
		<path class="st4" d="M379.92,649.97c-4.16-5.6-7.97-11.45-11.43-17.48c-4.07-7.09-5.44-25.31-5.24-48.13    c2.28,3.7,4.32,7.57,7.02,10.96c4.34,5.47,10.21,9.48,15.41,14.14c5.2,4.66,9.98,10.42,10.98,17.33    C398.15,637.12,390,647.26,379.92,649.97z"/>
	</g>
	<g>
		<path class="st4" d="M440.26,607.34c2.06,0.98,3.55,2.83,4.97,4.62c3.7,4.67,7.41,9.35,11.11,14.02    c4.97,6.27,9.98,12.61,13.31,19.88c3.33,7.27,4.87,15.67,2.57,23.33c-1.01,3.38-3.14,6.92-7.58,6.27    c-1.52-0.22-2.91-0.96-4.1-1.92c-8.13-6.6-9.28-18.5-16.43-25.93c-5.72-5.94-15.09-8.87-17.8-16.65    c-1.42-4.06-0.57-8.63,1.33-12.49c1.09-2.21,2.5-4.23,4.05-6.15C433.83,609.64,436.88,607.86,440.26,607.34L440.26,607.34z"/>
	</g>
	<g>
		<path class="st4" d="M616.32,621.74c14.05-3.44,29.78,1.1,39.83,11.51c4.16,4.31,7.45,9.74,8.02,15.71    c0.57,5.96-2.03,12.43-7.26,15.36c-6.12,3.43-13.91,1.32-19.98-2.2c-6.07-3.52-11.41-8.39-17.97-10.89    c-3.75-1.43-7.88-2.07-11.21-4.31c-5.02-3.38-7.23-10.38-5.06-16.03c2.17-5.65,8.51-9.36,14.5-8.51"/>
	</g>
	<path class="st4" d="M677.26,628.22c3.13,0.7,6.36,1.09,9.67,1.15c3.31-0.02,6.66-0.39,10.01-1.05c3.34-0.73,6.64-1.8,9.87-3.12   c3.21-1.38,6.32-3.07,9.3-4.98c11.89-7.68,20.73-20.14,25.85-34.31c1.27-3.55,2.32-7.19,3.2-10.9c0.83-3.72,1.45-7.51,1.9-11.33   c0.4-3.83,0.61-7.68,0.64-11.57c0-3.89-0.18-7.8-0.5-11.71c-1.37-15.67-5.41-31.27-10.61-46.54l0,0c-0.63-1.85,0.36-3.86,2.21-4.49   c1.76-0.6,3.67,0.28,4.4,1.96c6.46,15.15,11.92,30.99,14.68,47.71c0.67,4.18,1.18,8.4,1.5,12.65c0.29,4.25,0.38,8.56,0.26,12.87   c-0.17,4.31-0.55,8.62-1.18,12.92c-0.67,4.29-1.56,8.57-2.72,12.81c-1.21,4.22-2.66,8.4-4.42,12.49c-1.8,4.07-3.88,8.05-6.26,11.88   c-2.44,3.8-5.14,7.44-8.21,10.9c-3.11,3.39-6.49,6.53-10.13,9.38c-3.68,2.79-7.58,5.31-11.71,7.47c-4.16,2.1-8.52,3.9-13.06,5.26   c-4.57,1.3-9.29,2.2-14.13,2.59c-4.85,0.32-9.77,0.13-14.67-0.6c-5.97-0.89-10.08-6.45-9.19-12.41c0.89-5.97,6.45-10.08,12.41-9.19   c0.26,0.04,0.51,0.08,0.76,0.14L677.26,628.22z"/>
	<g>
		<path class="st4" d="M442.92,383.53c17.55,33.88,35.1,67.75,52.64,101.63c0.8,1.54,1.62,3.29,1.09,4.95    c-0.39,1.23-1.45,2.12-2.5,2.88c-14.47,10.38-35.87,7.38-49.37-4.24c-13.5-11.62-19.72-30.05-19.85-47.86    c-0.11-14.87,3.57-29.46,8.49-43.56C435.29,391.97,438.6,387.22,442.92,383.53L442.92,383.53z"/>
	</g>
</g>
<ellipse xmlns="http://www.w3.org/2000/svg" class="st3" cx="615.5" cy="959" rx="379.5" ry="10"/>
<circle xmlns="http://www.w3.org/2000/svg" class="st4" cx="846.5" cy="170.5" r="83.5"/>
<g xmlns="http://www.w3.org/2000/svg">
	<path class="st8" d="M249.44,289.48c-2.63-3.48-7.73-0.07-10.03,1.96c-1.85,1.63-3.5,3.42-5.03,5.35c-0.76,0.97-1.5,1.97-2.32,2.89   c-0.81,0.91-1.84,1.63-2.57,2.59c-0.27,0.36,0.1,0.85,0.52,0.69c1.56-0.59,2.86-2.25,3.93-3.48c1.36-1.55,2.63-3.19,4-4.74   c1.37-1.55,2.86-3.16,4.51-4.41c2.17-1.66,4.41-2,6.83-0.66C249.4,289.75,249.52,289.58,249.44,289.48L249.44,289.48z"/>
	<path class="st8" d="M253.24,286.1c1.38-2.32-0.73-4.69-2.97-5.28c-2.71-0.7-5.54,0.55-7.56,2.33c-2.68,2.36-4.51,5.6-6.49,8.53   c-2.32,3.45-4.58,6.95-6.99,10.34c-0.46,0.65,0.54,1.42,0.96,0.76c3.24-5.02,6.72-9.89,10.11-14.81c1.53-2.22,3.17-4.51,5.68-5.68   c2.96-1.38,7.66-0.52,6.91,3.7C252.86,286.21,253.15,286.26,253.24,286.1L253.24,286.1z"/>
	<path class="st8" d="M228.98,299.95c-3.32,4.55-8.24,7.66-12.97,10.7c-12.99,8.32-29.55,10.01-44.76,9.17   c-5.53-0.3-11.13-1.14-16.17-3.37c-0.72-0.32-1.43-0.66-2.12-1.04c-5.56-3.02-10.17-8.29-11.13-14.54   c-1.29-8.35,4.29-16.68,11.74-20.67c15.75-8.44,36.22-4.28,49.01,7.94c-3.56-6.44-9.26-11.38-13.94-17.05   c-4.69-5.67-8.55-12.85-7.29-20.1c0.72-4.16,3.1-7.91,6.18-10.79c3.08-2.88,6.84-4.94,10.73-6.57c8.21-3.43,17.15-5.01,26.04-4.96   c4.13,0.02,8.3,0.4,12.19,1.77c3.89,1.37,7.51,3.82,9.71,7.31c2.28,3.61,2.89,8.06,2.52,12.31c-0.37,4.25-1.65,8.36-2.92,12.43   c-0.78,2.48-1.57,4.97-2.4,7.44C239.82,280.5,235.57,290.9,228.98,299.95z"/>
	<path class="st0" d="M234.17,279.82c-1.11,5.1-2.75,10.4-5.19,15.16c-1.27,2.47-2.75,4.99-4.6,7.08c-1.79,2.02-4.46,2.59-6.98,3.5   c-11.53,4.15-23.74,6.42-36,6.67c-5.38,0.11-11.14-0.29-15.43-3.54c-2.09-1.59-3.78-4.3-2.86-6.75c0.71-1.89,2.71-2.95,4.6-3.66   c9.24-3.42,19.45-2.34,29.24-1.21c4.33,0.5,8.66,1,12.99,1.5c3.14,0.36,6.58,0.65,9.19-1.13c-5-9.86-14.08-16.86-21.78-24.79   c-1.89-1.95-3.8-4.15-4.17-6.85c-0.74-5.37,4.21-6.22,8.12-4.92c4.65,1.54,8.59,4.87,11.5,8.75c3.74,4.97,6.02,10.86,8.26,16.67   c-2.62-8.88-5.24-17.76-7.85-26.64c-0.5-1.7-1.01-3.5-0.58-5.22c0.83-3.32,4.82-4.89,8.22-4.56c6.16,0.6,11.2,5.74,13.2,11.6   C236.05,267.34,235.49,273.77,234.17,279.82z"/>
	<path class="st9" d="M203.49,328.57c-0.01-0.14-0.03-0.28-0.04-0.43c-0.09-1.02-0.18-2.07,0.09-3.07c0.22-0.81,0.68-1.54,1.12-2.26   c1.56-2.5,2.66-4.96,4.8-7c2.28-2.17,4.78-4.18,7.45-5.84c1.26-0.8,2.56-1.56,3.59-2.65c1.62-1.72,2.35-4.08,3.74-5.99   c1.38-1.91,4.02-3.38,6.06-2.2c1.8,1.04,2.06,3.81,0.79,5.47c-2.17,2.84-6.46,1.33-9.28,3.45c-8.24,6.21-12.52,13.86-14.1,24.04   c-0.1,0.64-0.31,1.41-0.94,1.55c-0.26,0.06-0.54-0.02-0.78-0.13c-0.95-0.43-1.62-1.33-1.99-2.31   C203.69,330.37,203.58,329.46,203.49,328.57z"/>
</g>
</svg>